# xmcd CD database file
#
# Track frame offsets:
#	150
#	21863
#	42007
#	59681
#	81494
#	104858
#	126531
#	147736
#	171593
#	194138
#	218119
#	247243
#	284782
#
# Disc length: 4230 seconds
#
# Revision: 1
# Processed by: cddbd v1.5PL3 Copyright (c) Steve Scherf et al.
# Submitted via: CDex 1.51
#
DISCID=ec10840d
DTITLE=Varios - Concierto Homenaje a Frankie Ruiz
DYEAR=2004
DGENRE=Salsa
TTITLE0=MG Son Iyá - Bailando
TTITLE1=Adalberto Santiago - Tú Me Vuelves Loco
TTITLE2=Hansel - Ahora Me Toca a Mí
TTITLE3=Tito Allen - La Cura
TTITLE4=Tommy Olivencia - La Cura
TTITLE5=Tommy Olivencia con Luisito Carrión - Viajera
TTITLE6=Luisito Carrión - Voy Pa' Encima
TTITLE7=Roberto Torres - El Camionero
TTITLE8=Luis Enrrique - Lo Dudo
TTITLE9=Servando y Florentino - Mi Libertad
TTITLE10=Lalo Rodríguez - La Rueda
TTITLE11=Jose Alberto ''El Canario'' - Desnúdate Mujer
TTITLE12=Homenaje All Stars con Frankie Ruiz jr. - Puerto Rico
EXTD=YEAR: 2004
EXTT0=
EXTT1=
EXTT2=
EXTT3=
EXTT4=
EXTT5=
EXTT6=
EXTT7=
EXTT8=
EXTT9=
EXTT10=
EXTT11=
EXTT12=
PLAYORDER=
